<?xml version="1.0" encoding="UTF-8" standalone="no"?>
<svg viewBox="0 0 400 100" xmlns="http://www.w3.org/2000/svg">
  <!-- Cactus in vierkant met gradient -->
  <defs>
    <linearGradient id="cactusGradient" x1="0%" y1="0%" x2="100%" y2="100%">
      <stop offset="0%" style="stop-color:#007a3d;stop-opacity:1" />
      <stop offset="100%" style="stop-color:#8ed63e;stop-opacity:1" />
    </linearGradient>
  </defs>
  
  <!-- Groene achtergrond met afgeronde hoeken -->
  <rect x="10" y="10" width="80" height="80" rx="15" fill="url(#cactusGradient)" />
  
  <!-- Cactus silhouet (donkerblauw) -->
  <path d="M40 70V40c0-5 5-5 5-5h5V25c0-5 5-5 5-5s5 0 5 5v30c0 5 5 5 5 5h5v10H40z" fill="#303654" />
  <path d="M55 20v15h-5c-5 0-5 5-5 5v30h-5V40c0-5 5-5 5-5h5V25c0-5 5-5 5-5z" fill="#303654" />
  
  <!-- TECNARIT tekst in wit -->
  <g fill="#FFFFFF">
    <path d="M130 30h40v8h-16v42h-8V38h-16z" /> <!-- T -->
    <path d="M170 30h32v8h-24v12h20v8h-20v14h24v8h-32z" /> <!-- E -->
    <path d="M210 30h8l16 36.5V30h8v50h-8l-16-36.5V80h-8z" /> <!-- N -->
    <path d="M290 37.5l-5.5-5.5c-4.5-1.5-7-2-10-2-6 0-9 2-9 6 0 12 26 5 26 23 0 9-8 15-17 15-7 0-13-2-18-7l6-6c4 3.5 7.5 5 12 5 6 0 9-2.5 9-7 0-12-26-5-26-22 0-9 7-15 17-15 6 0 11 1.5 15.5 5.5z" /> <!-- S -->
    <path d="M305 80V30h8v50z" /> <!-- I -->
    <path d="M325 30h8v42h24v8h-32z" /> <!-- L -->
  </g>
  
  <!-- A in wit met driehoek -->
  <path d="M250 30h8l15 50h-8l-3-10h-16l-3 10h-8l15-50zm-1 32h12l-6-20-6 20z" fill="#FFFFFF" />
  
  <!-- R in wit met speciale vorm -->
  <path d="M345 30h18c10 0 17 7 17 17 0 10-7 17-17 17h-10v16h-8V30zm8 26h10c5 0 9-4 9-9s-4-9-9-9h-10v18z" fill="#FFFFFF" />
</svg>